#define omnion_width 10
#define omnion_height 10
static unsigned char omnion_bits[] = {
   0x00, 0x00, 0x00, 0x00, 0x48, 0x00, 0xfc, 0x00, 0x48, 0x00, 0x48, 0x00,
   0xfc, 0x00, 0x48, 0x00, 0x00, 0x00, 0x00, 0x00 };
