#define omni_width 10
#define omni_height 10
static unsigned char omni_bits[] = {
   0x00, 0x00, 0x00, 0x00, 0xcc, 0x00, 0x84, 0x00, 0x00, 0x00, 0x00, 0x00,
   0x84, 0x00, 0xcc, 0x00, 0x00, 0x00, 0x00, 0x00 };
