#define min_width 10
#define min_height 10
static unsigned char min_bits[] = {
   0x00, 0x00, 0x00, 0x00, 0x0c, 0x00, 0x0c, 0x00, 0x00, 0x00, 0x00, 0x00,
   0xcc, 0x00, 0xcc, 0x00, 0x00, 0x00, 0x00, 0x00 };
